<?xml version="1.0" encoding="UTF-8" standalone="no"?>
<!-- Created with Inkscape (http://www.inkscape.org/) -->

<svg
   xmlns:dc="http://purl.org/dc/elements/1.1/"
   xmlns:cc="http://creativecommons.org/ns#"
   xmlns:rdf="http://www.w3.org/1999/02/22-rdf-syntax-ns#"
   xmlns:svg="http://www.w3.org/2000/svg"
   xmlns="http://www.w3.org/2000/svg"
   xmlns:sodipodi="http://sodipodi.sourceforge.net/DTD/sodipodi-0.dtd"
   xmlns:inkscape="http://www.inkscape.org/namespaces/inkscape"
   width="287.79736mm"
   height="116.73643mm"
   viewBox="0 0 287.79736 116.73643"
   version="1.1"
   id="svg8"
   inkscape:version="0.92.4 (5da689c313, 2019-01-14)"
   sodipodi:docname="lesnoe.svg">
  <defs
     id="defs2" />
  <sodipodi:namedview
     id="base"
     pagecolor="#ffffff"
     bordercolor="#666666"
     borderopacity="1.0"
     inkscape:pageopacity="0.0"
     inkscape:pageshadow="2"
     inkscape:zoom="0.98994949"
     inkscape:cx="722.54087"
     inkscape:cy="113.94612"
     inkscape:document-units="mm"
     inkscape:current-layer="layer1"
     showgrid="false"
     fit-margin-top="0"
     fit-margin-left="0"
     fit-margin-right="0"
     fit-margin-bottom="0"
     inkscape:window-width="3169"
     inkscape:window-height="1850"
     inkscape:window-x="170"
     inkscape:window-y="-12"
     inkscape:window-maximized="1" />
  <metadata
     id="metadata5">
    <rdf:RDF>
      <cc:Work
         rdf:about="">
        <dc:format>image/svg+xml</dc:format>
        <dc:type
           rdf:resource="http://purl.org/dc/dcmitype/StillImage" />
        <dc:title></dc:title>
      </cc:Work>
    </rdf:RDF>
  </metadata>
  <g
     inkscape:label="Layer 1"
     inkscape:groupmode="layer"
     id="layer1"
     transform="translate(101.96058,188.21416)">
    <path
       style="fill:#5a891d;stroke-width:0.35277778"
       d="m -97.669526,-72.090773 c -4.297854,-1.53784 -5.555764,-4.955629 -2.911814,-7.911518 l 1.023102,-1.143808 h 5.584081 c 6.762423,0 8.349126,-0.428385 11.184309,-3.019584 3.137141,-2.86717 5.201987,-7.569843 6.341588,-14.442917 0.719747,-4.34089 0.851688,-6.21699 3.4513,-49.07517 2.34444,-38.65122 2.32903,-37.64122 0.59089,-38.72671 -0.41377,-0.25841 -1.67913,-0.55387 -2.81191,-0.65658 -1.410687,-0.12792 -2.059596,-0.33805 -2.059596,-0.66693 0,-0.40193 5.920426,-0.48017 36.336116,-0.48017 30.5903,0 36.3361099,0.0767 36.3361099,0.48493 0,0.36121 -0.76911,0.52529 -3.01461,0.64315 -2.5104399,0.13177 -3.1446699,0.2883 -3.7923599,0.93596 l -0.77776,0.77774 v 55.64092 55.640917 l 3.8805599,0.176388 c 3.58658,0.163026 3.88056,0.229842 3.88056,0.881945 0,0.691921 -0.23519,0.705556 -12.1708399,0.705556 -11.93564,0 -12.17083,-0.01365 -12.17083,-0.705556 0,-0.643664 0.29398,-0.721028 3.35139,-0.881945 l 3.35139,-0.176388 0.0893,-55.453367 0.0893,-55.45336 -0.85254,-0.99109 -0.85254,-0.99108 h -21.87438 -21.87436 l -0.90491,0.85017 c -0.4977,0.4676 -0.98806,1.34072 -1.08969,1.94028 -0.10164,0.59956 -1.21284,18.07636 -2.46935,38.83733 -2.5294,41.79279 -2.73072,44.51206 -3.709647,50.106154 -2.679319,15.311047 -8.494501,23.222008 -17.404651,23.677253 -2.215982,0.113221 -3.307045,-0.0068 -4.748208,-0.52252 z M 15.59631,-71.988549 C 7.9085399,-74.058959 3.6845999,-80.09347 3.2599899,-89.612766 c -0.39161,-8.779394 2.6393,-14.949994 8.8358401,-17.988854 8.20052,-4.02163 17.65247,-1.48474 20.90038,5.60964 1.14881,2.509334 1.7439,5.731444 1.18329,6.40694 -0.34888,0.420373 -2.57502,0.504218 -13.3874,0.504218 H 7.8231699 l -0.24512,1.961839 c -0.48745,3.901412 0.5836,11.16334 2.13007,14.442328 1.9800301,4.19825 5.5199501,6.564521 9.9066701,6.622147 3.60358,0.04734 5.86533,-0.841114 8.24572,-3.23905 2.27008,-2.286815 2.81191,-3.708951 2.81191,-7.380366 0,-2.114871 0.10611,-2.561085 0.68237,-2.869487 1.00449,-0.537588 1.37311,-0.458449 2.33228,0.500722 1.64287,1.642865 0.76404,5.439044 -1.94548,8.403693 -3.87521,4.240089 -10.54039,6.159913 -16.14528,4.650447 z m 14.30065,-26.708246 c -0.39806,-7.314355 -5.04235,-11.326365 -11.71143,-10.117035 -2.61762,0.47467 -3.72909,1.03521 -5.75443,2.90209 -2.18914,2.01789 -3.4620801,4.6168 -4.4841901,9.155223 l -0.21848,0.970139 H 18.89189 30.05535 Z m 137.69146,26.870521 c -2.64812,-0.520062 -5.93524,-2.29076 -7.79271,-4.197756 -6.80792,-6.989432 -7.06476,-21.565296 -0.50359,-28.57971 5.58585,-5.97173 16.42064,-6.569 22.32926,-1.23091 2.6181,2.36529 5.08804,8.817847 3.91595,10.230129 -0.36994,0.445756 -2.37088,0.523699 -13.44421,0.523699 h -13.00958 l 0.006,4.674306 c 0.009,7.254413 1.45553,12.286058 4.36778,15.198309 4.28691,4.286906 11.65959,4.287033 15.94635,2.82e-4 1.92662,-1.926622 2.71919,-4.013599 2.68746,-7.076542 -0.0307,-2.95927 0.46976,-3.822612 2.00203,-3.453949 1.47406,0.354658 1.88381,1.172559 1.69487,3.383132 -0.21709,2.539997 -1.16787,4.358912 -3.34105,6.39166 -3.92236,3.66891 -9.43207,5.20307 -14.85869,4.13735 z m 13.8852,-24.630025 c 0.31006,-0.976934 -0.4379,-5.187021 -1.26178,-7.102181 -0.85922,-1.99732 -2.81694,-3.9812 -4.70502,-4.76788 -1.87243,-0.78017 -5.56776,-0.79075 -7.85792,-0.0225 -3.77321,1.26574 -6.82108,5.21266 -7.99829,10.357621 l -0.5045,2.204861 h 11.05744 c 10.55155,0 11.06717,-0.03066 11.27007,-0.669921 z M 53.07381,-72.15803 c -6.26823,-1.258161 -10.70205,-5.558752 -12.39908,-12.026509 -0.82955,-3.161602 -0.82246,-9.678484 0.0136,-12.468716 0.99779,-3.330127 2.25929,-5.476605 4.58182,-7.796075 4.4284,-4.42259 10.77413,-6.07308 17.48285,-4.54722 5.20119,1.18299 8.30076,4.27919 8.30076,8.29176 0,1.499928 -0.17518,2.228683 -0.66616,2.771205 -1.29699,1.433157 -4.08363,0.516739 -3.55342,-1.16858 0.12825,-0.407634 0.31669,-1.546895 0.41875,-2.531675 0.48491,-4.67864 -4.36266,-8.03323 -10.74696,-7.43706 -2.80329,0.26178 -4.88795,1.18177 -6.91804,3.05304 -2.01108,1.85375 -3.09576,3.69805 -4.15011,7.056482 -0.73998,2.35705 -0.82878,3.300413 -0.81367,8.643056 0.0231,8.165098 1.1162,12.017704 4.27408,15.063841 2.26695,2.186736 4.33436,2.913377 8.23256,2.893533 3.82587,-0.01947 5.20076,-0.482706 7.44174,-2.507298 2.43569,-2.200501 3.40881,-4.92247 2.77341,-7.757724 -0.46138,-2.058773 0.20165,-3.28263 1.77837,-3.28263 1.18996,0 2.1176,1.355648 2.1176,3.094638 0,2.908321 -2.66949,6.895257 -5.87431,8.773404 -3.41221,1.999689 -8.11914,2.720456 -12.29375,1.882528 z m 75.67084,0.116826 c -8.48292,-1.420009 -14.08106,-8.83429 -14.10499,-18.680929 -0.007,-2.900609 0.93813,-6.348571 2.27763,-8.308725 0.49018,-0.71731 0.89125,-1.636442 0.89125,-2.042522 0,-2.23687 2.6752,-5.14682 6.20155,-6.74575 7.39461,-3.35288 17.20212,-1.45048 21.49296,4.16906 2.67714,3.50614 3.70271,7.00332 3.70271,12.626192 0,6.3454 -1.64278,10.976054 -5.13158,14.464853 -3.65743,3.657434 -9.74744,5.452241 -15.32953,4.517821 z m 7.89754,-1.182744 c 5.03676,-1.88449 7.78713,-7.256618 8.20999,-16.036041 0.44364,-9.21095 -2.1677,-15.908611 -7.20444,-18.478161 -2.02343,-1.03228 -5.19751,-1.50714 -7.52623,-1.12597 -5.56107,0.91024 -8.46637,4.11159 -7.94212,8.75144 0.1766,1.563022 0.10105,2.216814 -0.32668,2.826997 -0.6187,0.882625 -2.20667,1.073012 -2.94243,0.352777 -0.36497,-0.357268 -0.41354,0.09473 -0.25587,2.38125 0.10703,1.552223 0.28668,4.250973 0.39922,5.997223 0.41278,6.404988 1.99315,10.540821 5.09266,13.32755 0.98641,0.886869 2.46426,1.850013 3.28411,2.140313 2.26935,0.803561 6.88071,0.734791 9.21179,-0.137378 z m -60.10865,0.751596 1.94027,-0.20708 0.0915,-17.727084 0.0915,-17.727084 h -1.94362 c -1.06895,0 -1.94354,-0.15875 -1.94354,-0.35278 0,-0.22093 2.17546,-0.35278 5.82083,-0.35278 3.64537,0 5.82083,0.13185 5.82083,0.35278 0,0.19403 -0.79375,0.35278 -1.76388,0.35278 h -1.76389 v 7.9375 7.9375 h 9.88452 9.88453 l -0.0949,-7.84931 -0.0949,-7.8493 -1.85208,-0.10663 c -1.01865,-0.0587 -1.85208,-0.25709 -1.85208,-0.44098 0,-0.19709 2.38944,-0.33434 5.82083,-0.33434 3.64537,0 5.82083,0.13185 5.82083,0.35278 0,0.19403 -0.87459,0.35278 -1.94354,0.35278 h -1.94354 l 0.0915,17.727084 0.0915,17.727084 1.94027,0.20708 c 1.06716,0.113898 -0.75847,0.207554 -4.05694,0.208129 -3.29847,7.05e-4 -5.4416,-0.05609 -4.7625,-0.125924 0.6791,-0.06983 1.59191,-0.206203 2.02847,-0.303044 l 0.79375,-0.176071 v -9.341891 -9.341891 h -9.88354 -9.88354 l 0.094,9.436806 0.094,9.436806 1.94027,0.20708 c 1.06716,0.113898 -0.83784,0.207084 -4.23333,0.207084 -3.39549,0 -5.30049,-0.09319 -4.23333,-0.207084 z"
       id="path47"
       inkscape:connector-curvature="0" />
  </g>
</svg>
