<?xml version="1.0" encoding="UTF-8" standalone="no"?>
<svg
   xmlns:dc="http://purl.org/dc/elements/1.1/"
   xmlns:cc="http://creativecommons.org/ns#"
   xmlns:rdf="http://www.w3.org/1999/02/22-rdf-syntax-ns#"
   xmlns:svg="http://www.w3.org/2000/svg"
   xmlns="http://www.w3.org/2000/svg"
   viewBox="0 0 368.62341 441.01434"
   height="441.01434"
   width="368.62341"
   id="svg2"
   version="1.1">
  <metadata
     id="metadata8">
    <rdf:RDF>
      <cc:Work
         rdf:about="">
        <dc:format>image/svg+xml</dc:format>
        <dc:type
           rdf:resource="http://purl.org/dc/dcmitype/StillImage" />
        <dc:title></dc:title>
      </cc:Work>
    </rdf:RDF>
  </metadata>
  <defs
     id="defs6" />
  <path
     id="path12"
     d="M 16.21814,438.89153 C -0.02571953,433.07922 -4.7800095,420.16159 5.2128705,408.98973 l 3.86683,-4.32306 H 30.18489 c 25.55876,0 31.55575,-1.61909 42.2714,-11.4126 11.85691,-10.83654 19.66106,-28.61042 23.96821,-54.5874 2.71199,-16.35635 3.19047,-23.15521 13.05181,-185.45663 C 118.3567,7.05354 118.29767,10.93607 111.70206,6.81705 110.13822,5.84041 105.35577,4.72371 101.07439,4.33549 95.74264,3.85202 93.29007,3.05784 93.29007,1.81481 93.29007,0.2957 115.66648,0 230.62341,0 c 115.61691,0 137.33334,0.28982 137.33334,1.8328 0,1.3652 -2.90687,1.98537 -11.39379,2.43082 -9.48827,0.498 -11.88539,1.08962 -14.33333,3.53749 l -2.93955,2.93948 v 210.29637 210.29638 l 14.66667,0.66667 c 13.55556,0.61616 14.66666,0.86869 14.66666,3.33333 0,2.61513 -0.88889,2.66667 -46,2.66667 -45.1111,0 -46,-0.0516 -46,-2.66667 0,-2.43275 1.11111,-2.72515 12.66667,-3.33333 l 12.66667,-0.66667 0.33746,-209.58751 0.33747,-209.58751 -3.22221,-3.74583 -3.2222,-3.74582 h -82.67473 -82.67471 l -3.42013,3.21324 c -1.88107,1.76728 -3.73442,5.06728 -4.11854,7.33333 -0.38413,2.26605 -4.58396,68.32009 -9.33295,146.78676 -9.55995,157.95699 -10.32086,168.23456 -14.02073,189.37758 -10.12656,57.86852 -32.1052,87.76821 -65.78136,89.48883 -8.37536,0.42792 -12.49907,-0.0259 -17.94598,-1.97488 z"
     style="fill:#59891c;stroke-width:1.33333337" />
</svg>
