<?xml version="1.0" encoding="UTF-8" standalone="no"?>
<svg
   xmlns:dc="http://purl.org/dc/elements/1.1/"
   xmlns:cc="http://creativecommons.org/ns#"
   xmlns:rdf="http://www.w3.org/1999/02/22-rdf-syntax-ns#"
   xmlns:svg="http://www.w3.org/2000/svg"
   xmlns="http://www.w3.org/2000/svg"
   viewBox="0 0 690.18121 143.92093"
   height="143.92093"
   width="690.18121"
   id="svg2"
   version="1.1">
  <metadata
     id="metadata8">
    <rdf:RDF>
      <cc:Work
         rdf:about="">
        <dc:format>image/svg+xml</dc:format>
        <dc:type
           rdf:resource="http://purl.org/dc/dcmitype/StillImage" />
        <dc:title></dc:title>
      </cc:Work>
    </rdf:RDF>
  </metadata>
  <defs
     id="defs6" />
  <path
     id="path25"
     d="M 46.7526,141.99029 C 17.6965,134.16511 1.7319998,111.35752 0.12719983,75.379068 -1.3529002,42.197108 10.1024,18.875158 33.5225,7.3896976 c 37.0293,-18.1595996 76.56093,-1.49924 83.52063,35.1992604 2.4545,12.94261 5.8692,12.12345 -50.53653,12.12345 H 17.3738 l -0.9264,7.41482 c -1.8424,14.7455 2.2057,42.192152 8.0506,54.585182 7.4836,15.8674 20.8628,24.81078 37.4426,25.02858 13.6198,0.17891 22.1681,-3.17901 31.16493,-12.24208 8.5798,-8.64308 10.6277,-14.01807 10.6277,-27.89428 0,-7.993232 0.401,-9.679702 2.579,-10.845312 3.7965,-2.03184 5.1897,-1.73273 8.8149,1.89248 6.2093,6.20925 2.8877,20.557022 -7.353,31.761992 -14.6464,16.02554 -39.83763,23.28156 -61.02153,17.5765 z M 100.80233,41.045738 C 99.29783,13.400928 81.7446,-1.7625824 56.5387,2.8081276 c -9.8934,1.79401 -14.0943,3.91259 -21.7491,10.9685404 -8.2739,7.62664 -13.085,17.44932 -16.9481,34.6024 l -0.8258,3.66667 h 42.1926 42.19263 z m 520.4086,101.557872 c -10.0086,-1.96559 -22.4324,-8.65799 -29.4528,-15.86553 -25.7307,-26.41676 -26.7014,-81.506632 -1.9033,-108.017812 21.1119,-22.5703004 62.0623,-24.8277104 84.3941,-4.65227 9.8951,8.93968 19.2304,33.32731 14.8004,38.66507 -1.3982,1.68475 -8.9608,1.97934 -50.8128,1.97934 h -49.17 l 0.023,17.66666 c 0.036,27.41825 5.5012,46.435492 16.5081,57.442442 16.2025,16.20247 44.0678,16.20295 60.2697,0.001 7.2817,-7.28172 10.2772,-15.16951 10.1573,-26.74598 -0.1159,-11.184642 1.7755,-14.447672 7.5667,-13.054302 5.5713,1.34045 7.12,4.43173 6.4059,12.786652 -0.8206,9.59998 -4.4141,16.47463 -12.6276,24.15745 -14.8247,13.86675 -35.6488,19.66515 -56.1589,15.63723 z m 52.4795,-93.089852 c 1.1828,-3.72665 -1.6666,-19.63124 -4.8376,-27.00242 -3.3117,-7.69822 -12.0678,-16.1311204 -19.2319,-18.5218604 -7.2974,-2.43528 -19.9436,-2.17406 -28.1814,0.58213 -14.2557,4.76958 -25.7793,19.6900904 -30.2298,39.1408004 l -1.9067,8.33333 h 41.7919 c 39.8798,0 41.8286,-0.11584 42.5955,-2.53198 z m -485.2906,91.835972 c -23.691,-4.75526 -40.4487,-21.00945 -46.8626,-45.454522 -3.1353,-11.94936 -3.1085,-36.58009 0.051,-47.12586 3.774,-12.59617 8.5425,-20.70409 17.317,-29.44457 16.7112,-16.6463904 40.8757,-22.9391204 66.0769,-17.2072404 19.6581,4.47113 31.373,16.1733104 31.373,31.3389304 0,5.66901 -0.6621,8.42337 -2.5178,10.47384 -4.902,5.41665 -15.4342,1.95303 -13.4302,-4.41667 0.4847,-1.54068 1.1969,-5.84652 1.5827,-9.56854 1.8327,-17.68306 -16.4888,-30.36183042 -40.6184,-28.1085704 -10.5951,0.98938 -18.4742,4.46653 -26.1469,11.5390604 -7.601,7.0063 -11.7006,13.97689 -15.6855,26.67015 -2.7968,8.90853 -3.1324,12.474 -3.0753,32.66667 0.087,30.860212 4.2187,45.421242 16.154,56.934202 8.568,8.26482 16.3818,11.01118 31.1152,10.93618 14.46,-0.0736 19.6564,-1.8244 28.1263,-9.4764 9.2057,-8.31685 12.8836,-18.60461 10.4821,-29.32053 -1.7438,-7.781192 0.7622,-12.406792 6.7214,-12.406792 3.009,0 4.4138,0.92576 5.9693,3.93379 4.1952,8.112542 0.8754,20.617712 -8.1333,30.637592 -13.792,15.34004 -35.9398,21.9274 -58.4991,17.39928 z m 286,0.44154 c -32.0615,-5.36696 -53.2198,-33.38943 -53.3102,-70.605082 -0.027,-10.96293 3.5457,-23.99459 8.6084,-31.40304 1.8526,-2.7111 3.3684,-6.185 3.3684,-7.71979 0,-8.45431 10.111,-19.45255 23.439,-25.4957304 27.9481,-12.67229 65.0159,-5.48214 81.2332,15.7570504 10.1183,13.25156 13.9945,26.46926 13.9945,47.72106 0,23.98261 -6.2089,41.484292 -19.3949,54.670312 -13.8234,13.82337 -36.8407,20.60689 -57.9384,17.07522 z m 29.849,-4.47021 c 19.0365,-7.12248 29.4316,-27.42659 31.0298,-60.608652 1.6768,-34.81304 -8.1929,-60.12703 -27.2293,-69.8387104 -7.6476,-3.90152 -19.6442,-5.69628 -28.4456,-4.25565 -21.0183,3.44029 -31.9989,15.5398904 -30.0175,33.0763304 0.6675,5.90747 0.3819,8.3785 -1.2347,10.68469 -2.3384,3.33591 -8.3401,4.05548 -11.121,1.33334 -1.3794,-1.35031 -1.563,0.35802 -0.9671,9 0.4046,5.86666 1.0836,16.06666 1.5089,22.66666 1.5601,24.207832 7.5332,39.839322 19.2479,50.371842 3.7281,3.35195 9.3137,6.99218 12.4124,8.08938 8.577,3.03708 26.0058,2.77716 34.8162,-0.51923 z m -227.1824,2.84068 7.3334,-0.78267 0.3456,-67.000002 0.3457,-67.0000004 h -7.3457 c -4.0401,0 -7.3456,-0.6 -7.3456,-1.33333 0,-0.83502 8.2222,-1.33333 22,-1.33333 13.7778,0 22,0.49831 22,1.33333 0,0.73333 -3,1.33333 -6.6667,1.33333 h -6.6667 v 30.0000004 30 h 37.3589 37.3588 l -0.3588,-29.66666 -0.3589,-29.6666704 -7,-0.40301 c -3.85,-0.22166 -7,-0.97166 -7,-1.66667 0,-0.74493 9.031,-1.26365 22,-1.26365 13.7778,0 22,0.49831 22,1.33333 0,0.73333 -3.3055,1.33333 -7.3456,1.33333 h -7.3457 l 0.3457,67.0000004 0.3456,67.000002 7.3334,0.78267 c 4.0333,0.43048 -2.8667,0.78445 -15.3334,0.78663 -12.4666,0.003 -20.5666,-0.212 -18,-0.47594 2.5667,-0.26393 6.0167,-0.77934 7.6667,-1.14536 l 3,-0.66546 V 103.35367 68.045738 h -37.3551 -37.3551 l 0.3551,35.666672 0.3551,35.66666 7.3333,0.78267 c 4.0334,0.43048 -3.1666,0.78268 -16,0.78268 -12.8333,0 -20.0333,-0.3522 -16,-0.78268 z"
     style="fill:#5a8a1e;stroke-width:1.33333337" />
</svg>
