<?xml version="1.0" encoding="UTF-8" standalone="no"?>
<!-- Created with Inkscape (http://www.inkscape.org/) -->

<svg
   xmlns:dc="http://purl.org/dc/elements/1.1/"
   xmlns:cc="http://creativecommons.org/ns#"
   xmlns:rdf="http://www.w3.org/1999/02/22-rdf-syntax-ns#"
   xmlns:svg="http://www.w3.org/2000/svg"
   xmlns="http://www.w3.org/2000/svg"
   xmlns:sodipodi="http://sodipodi.sourceforge.net/DTD/sodipodi-0.dtd"
   xmlns:inkscape="http://www.inkscape.org/namespaces/inkscape"
   version="1.1"
   id="svg2"
   width="214.78596"
   height="78.979935"
   viewBox="0 0 214.78596 78.979935"
   sodipodi:docname="pattern.svg"
   inkscape:version="0.92.4 (5da689c313, 2019-01-14)">
  <metadata
     id="metadata8">
    <rdf:RDF>
      <cc:Work
         rdf:about="">
        <dc:format>image/svg+xml</dc:format>
        <dc:type
           rdf:resource="http://purl.org/dc/dcmitype/StillImage" />
        <dc:title></dc:title>
      </cc:Work>
    </rdf:RDF>
  </metadata>
  <defs
     id="defs6" />
  <sodipodi:namedview
     pagecolor="#ffffff"
     bordercolor="#666666"
     borderopacity="1"
     objecttolerance="10"
     gridtolerance="10"
     guidetolerance="10"
     inkscape:pageopacity="0"
     inkscape:pageshadow="2"
     inkscape:window-width="3169"
     inkscape:window-height="1850"
     id="namedview4"
     showgrid="false"
     fit-margin-top="0"
     fit-margin-left="0"
     fit-margin-right="0"
     fit-margin-bottom="0"
     inkscape:zoom="3.0249643"
     inkscape:cx="165.23592"
     inkscape:cy="43.342848"
     inkscape:window-x="170"
     inkscape:window-y="-12"
     inkscape:window-maximized="1"
     inkscape:current-layer="svg2" />
  <path
     style="fill:#c4ab84"
     d="m 34.785968,76.697889 c -6.1058,-2.2471 -19.659,-2.9167 -28.7288999,-1.4194 -4.3483,0.7179 -5.32959996,0.6008 -5.82699996,-0.6954 -0.9614,-2.5054 1.12819996,-5.2183 5.55829996,-7.216 3.5663,-1.6082 4.0419,-2.1862 3.5177,-4.2749 -1.2426,-4.9507 4.3838999,-6.8764 10.6395999,-3.6414 1.6832,0.8704 2.8772,1.2079 2.6532,0.75 -0.224,-0.4579 -1.0294,-2.0792 -1.7898,-3.6028 -2.0633,-4.1339 -0.3053,-5.4305 5.1478,-3.7967 3.1285,0.9373 6.5376,3.5538 13.0472,10.0141 6.2809,6.2333 9.9626,9.09 12.8176,9.9453 6.747,2.0215 8.0985,-0.6896 2.5504,-5.1164 -3.7348,-2.98 -5.0952,-6.3251 -6.0653,-14.9143 -0.3502,-3.101 -1.286,-6.47599 -2.0795,-7.49999 -1.3644,-1.760705 -1.4997,-1.766805 -2.4917,-0.111805 -1.913,3.191395 -6.9496,1.513605 -6.9496,-2.3151 0,-2.946 3.9401,-6.9349 6.8501,-6.9349 5.4857,0 9.4664,4.985 11.5786,14.499995 l 1.11,5 5.9807,0.2878 c 6.4487,0.3103 8.4806,1.7296 8.4806,5.9239 0,1.6243 -1.3623,3.2897 -4.5,5.5014 -2.5037,1.7648 -4.5,3.9738 -4.5,4.9794 0,4.329 18.3175,0.4829 26.2079,-5.5029 2.3606,-1.7909 5.7036,-5.3531 7.4288,-7.9162 3.0341,-4.5077 6.195302,-14.274695 5.005402,-15.464595 -0.3208,-0.3208 -1.902002,0.8285 -3.513902,2.554005 -3.7532,4.01769 -8.1294,4.22699 -11.7926,0.5637 -2.1324,-2.132305 -2.4731,-3.191705 -1.9881,-6.180705 0.7341,-4.5235 2.3493,-6.1601 6.7912,-6.8809 2.9965,-0.4862 3.9213,-0.1217 6.4275,2.5336 3.5159,3.7251 4.433802,3.8734 4.433802,0.7163 0,-8.1316 -7.398802,-19.737 -15.081902,-23.6566 -7.0458,-3.5944999 -18.2216,-1.9966 -20.8885,2.9864 -1.3204,2.4672 -1.3178,6.6483 0.01,9.1211 1.4793,2.764 4.8194,2.4472 5.9649,-0.5657 0.6648,-1.7486 1.7036,-2.5 3.4562,-2.5 3.372,0 4.3976,3.9863 2.2074,8.5793 -2.7888,5.8481 -9.4528,5.8315 -15.3225,-0.038 -3.028,-3.028 -3.3408,-3.8894 -3.3374,-9.1911 0.01,-11.4548999 8.4766,-19.2776999 20.9253,-19.3279999 2.986,-0.012 6.9434,-0.5696 8.7943,-1.23890005 4.3309,-1.5661 5.9763,-0.5608 9.4958,5.80150005 4.133102,7.4716999 6.208102,18.0727999 6.247102,31.9153999 0.031,10.914795 -0.2045,12.508295 -2.6014,17.619995 -3.274602,6.9839 -8.961402,13.3827 -14.296602,16.0868 -2.2375,1.134 -4.2932,2.4008 -4.5682,2.8151 -0.275,0.4143 -2.2425,1.4789 -4.3721,2.3657 -6.1501,2.5609 -35.1861,2.1809 -42.6279,-0.5579 z m 27,-14.8297 c 0,-0.55 -0.45,-1 -1,-1 -0.55,0 -1,0.45 -1,1 0,0.55 0.45,1 1,1 0.55,0 1,-0.45 1,-1 z m 70.972502,15.308 c -1.3599,-0.9307 -2.6975,-1.9432 -2.9725,-2.25 -0.275,-0.3069 -2.2034,-1.4249 -4.2853,-2.4845 -4.6016,-2.3419 -10.841,-8.9406 -13.6382,-14.4235 -6.6363,-13.008295 -4.3152,-41.124295 4.494,-54.4358949 2.3532,-3.55600005 2.8845,-3.85620005 5.7609,-3.25600005 1.7427,0.3637 6.5436,1.00430005 10.6686,1.42360005 8.2228,0.8359 12.0994,2.4594 16.1864,6.779 3.5232,3.7237999 4.8136,7.3486999 4.8136,13.5219999 0,4.5358 -0.3971,5.4497 -3.8823,8.9349 -3.0967,3.0967 -4.6237,3.8824 -7.5455,3.8824 -4.5685,0 -8.5722,-3.6218 -8.5722,-7.7545 0,-5.3028 5.2455,-7.3601 7,-2.7455 1.0563,2.7784 4.0716,3.3236 5.9387,1.0739 0.6509,-0.7843 1.0435,-3.3572 0.8724,-5.7174 -0.2611,-3.6008 -0.8578,-4.6584 -3.709,-6.5739 -4.4117,-2.9636 -12.5593,-3.1103 -18.0202,-0.3244 -5.396,2.7529 -11.448,10.0196 -13.4138,16.1064 -2.6788,8.2946 -1.8266,12.8172 1.5252,8.0941 3.2502,-4.5799 8.7216,-5.3348 12.3522,-1.7042 3.441,3.4411 3.3585,8.6892 -0.1804,11.472895 -1.4491,1.1399 -3.453,2.0726 -4.4529,2.0726 -2.946,0 -6.8284,-2.16059 -7.4604,-4.151795 -0.3226,-1.0165 -1.267,-1.8482 -2.0986,-1.8482 -3.2219,0 1.9705,13.882295 7.5835,20.275095 4.7564,5.4172 14.115,9.6779 22.8697,10.4119 6.6746,0.5596 7.1936,0.4622 7.1936,-1.3495 0,-1.1775 -1.7861,-3.2115 -4.5,-5.1244 -3.1377,-2.2117 -4.5,-3.8771 -4.5,-5.5014 0,-4.1943 2.0319,-5.6136 8.4806,-5.9239 l 5.9807,-0.2878 1.1099,-5 c 2.1123,-9.514995 6.093,-14.499995 11.5787,-14.499995 4.6661,0 8.6098,6.8403 5.6501,9.800005 -1.658,1.65799 -3.3557,1.50139 -5.3506,-0.4934 -1.5912,-1.591205 -1.7682,-1.591105 -2.9336,0 -0.6821,0.9328 -1.5457,4.67789 -1.919,8.32249 -0.7862,7.6737 -2.3269,11.1219 -6.5609,14.6846 -5.0766,4.2717 -3.5793,6.5259 3.0211,4.5484 2.9806,-0.893 6.4719,-3.6039 12.803,-9.941 6.4751,-6.4812 9.7934,-9.0392 12.9545,-9.9863 5.3735,-1.61 7.1627,-0.3776 5.3209,3.6647 -1.4633,3.2117 -0.9754,3.9178 1.7132,2.4789 2.8365,-1.518 7.6873,-1.3452 9.072,0.3233 0.641,0.7724 0.8927,2.4912 0.5593,3.8197 -0.5243,2.0892 -0.048,2.6668 3.5259,4.2786 2.3401,1.0552 4.7638,3.0849 5.5888,4.6803 0.8012,1.5494 1.8952,2.8171 2.4311,2.8171 0.5359,0 0.9743,0.675 0.9743,1.5 0,1.913 -0.1459,1.9047 -10.671,-0.6068 -10.2686,-2.4503 -17.353,-2.16 -24.6619,1.0104 -4.3662,1.894 -6.7346,2.0964 -24.5275,2.0964 -16.8589,0 -20.0506,-0.2436 -22.1671,-1.692 z m 21.0275,-15.308 c 0,-0.55 -0.45,-1 -1,-1 -0.55,0 -1,0.45 -1,1 0,0.55 0.45,1 1,1 0.55,0 1,-0.45 1,-1 z"
     id="path117"
     inkscape:connector-curvature="0" />
</svg>
